<svg xmlns="http://www.w3.org/2000/svg" width="512" height="511.958" viewBox="0 0 512 511.958">
  <g id="edit" transform="translate(0 0.002)">
    <path id="Path_1" data-name="Path 1" d="M368,511.957H58.668A58.717,58.717,0,0,1,0,453.289V143.957A58.717,58.717,0,0,1,58.668,85.289H240a16,16,0,0,1,0,32H58.668A26.705,26.705,0,0,0,32,143.957V453.289a26.705,26.705,0,0,0,26.668,26.668H368a26.705,26.705,0,0,0,26.668-26.668V271.957a16,16,0,0,1,32,0V453.289A58.717,58.717,0,0,1,368,511.957Zm0,0" fill="#2956f7"/>
    <path id="Path_2" data-name="Path 2" d="M187.137,340.82a16,16,0,0,1-15.68-19.137l15.082-75.434a15.953,15.953,0,0,1,4.371-8.172L411.863,17.152A58.65,58.65,0,1,1,494.8,100.1L273.879,321.046a15.886,15.886,0,0,1-8.172,4.371L190.293,340.5a15.764,15.764,0,0,1-3.156.32Zm75.434-31.082h0Zm-45.609-52.457-9.41,47.145L254.676,295,472.192,77.484a26.67,26.67,0,0,0-37.715-37.719Zm0,0" fill="#2956f7"/>
    <path id="Path_3" data-name="Path 3" d="M453.332,134.977a15.87,15.87,0,0,1-11.3-4.7L381.7,69.93A16.005,16.005,0,0,1,404.332,47.3l60.328,60.352a16.012,16.012,0,0,1-11.328,27.328Zm0,0" fill="#2956f7"/>
  </g>
</svg>
