<svg id="LOGO" xmlns="http://www.w3.org/2000/svg" width="217.995" height="38" viewBox="0 0 217.995 38">
  <path id="Path_268" data-name="Path 268" d="M113.273,15.2h4.062c-.517-3.739-3.813-6.371-8.088-6.371-5,0-8.845,3.6-8.845,9.732,0,5.983,3.6,9.695,8.928,9.695,4.774,0,8.181-3.019,8.181-8V17.881H109.6v3.01h4.062c-.055,2.345-1.652,3.832-4.311,3.832-3,0-4.894-2.244-4.894-6.2,0-3.933,1.967-6.158,4.857-6.158A3.81,3.81,0,0,1,113.273,15.2Zm18.92-6.112V21.029a3.843,3.843,0,0,1-7.682,0V9.091h-4v12.28c0,4.136,3.12,6.9,7.838,6.9,4.7,0,7.839-2.761,7.839-6.9V9.091Zm11.285,0h-4V28h4ZM153.471,28c5.761,0,9.251-3.564,9.251-9.473,0-5.891-3.49-9.436-9.2-9.436h-6.759V28Zm-2.706-3.425V12.516h2.549c3.545,0,5.419,1.81,5.419,6.011,0,4.219-1.874,6.048-5.429,6.048ZM167.876,28l1.4-4.312H176.1l1.4,4.312h4.284L175.272,9.091H170.12L163.592,28Zm2.419-7.433,2.327-7.156h.148l2.327,7.156ZM199.882,9.091H195.9V20.983h-.166L187.575,9.091h-3.509V28h4V16.1h.139L196.429,28h3.453Zm2.583,3.3h5.789V28h3.952V12.387h5.789v-3.3h-15.53Z" fill="#1d2327"/>
  <path id="Path_269" data-name="Path 269" d="M52.013,28h3.9L59.5,15.637h.148L63.25,28h3.9l5.41-18.909H68.189l-3.13,13.166h-.166L61.449,9.091H57.71L54.257,22.229H54.1L50.97,9.091H46.6ZM74.7,28h4V21.869h3.361c4.349,0,6.879-2.594,6.879-6.371,0-3.758-2.484-6.408-6.777-6.408H74.7Zm4-9.334V12.359h2.7c2.308,0,3.425,1.256,3.425,3.139s-1.117,3.167-3.407,3.167Z" fill="#1d2327"/>
  <circle id="Ellipse_2" data-name="Ellipse 2" cx="19" cy="19" r="19" fill="#f5f5f5"/>
  <path id="Path_270" data-name="Path 270" d="M21.211,15.806v4.855h5.273a.807.807,0,0,0,.576-.242l1.528-1.556a.81.81,0,0,0,.019-1.115l-1.542-1.681a.807.807,0,0,0-.6-.262Z" fill="#de5819"/>
  <path id="Path_271" data-name="Path 271" d="M16.316,10.951H11.042a.807.807,0,0,0-.576.242L8.939,12.749a.81.81,0,0,0-.019,1.115l1.542,1.681a.807.807,0,0,0,.6.262h5.257Z" fill="#de5819"/>
  <path id="Path_272" data-name="Path 272" d="M20,27.824V8.726a.809.809,0,0,0-.81-.81h-.809a.809.809,0,0,0-.809.81v19.1a.809.809,0,0,0,.809.81h.81a.809.809,0,0,0,.809-.81Z" fill="#de5819"/>
  <path id="Path_273" data-name="Path 273" d="M14.546,29.451H23.02c.2,0,.359-.362.359-.809v-.81c0-.448-.161-.809-.359-.809H14.546c-.2,0-.359.362-.359.809v.81C14.186,29.088,14.347,29.451,14.546,29.451Z" fill="#de5819"/>
</svg>
