<svg xmlns="http://www.w3.org/2000/svg" width="512" height="490.666" viewBox="0 0 512 490.666">
  <g id="settings" transform="translate(0 -10.667)">
    <g id="Group_2" data-name="Group 2">
      <g id="Group_1" data-name="Group 1">
        <path id="Path_1" data-name="Path 1" d="M490.667,405.333H433.856C424.619,374.592,396.373,352,362.667,352s-61.931,22.592-71.189,53.333H21.333a21.333,21.333,0,0,0,0,42.667H291.477c9.237,30.741,37.483,53.333,71.189,53.333S424.6,478.741,433.855,448h56.811a21.333,21.333,0,0,0,0-42.667Zm-128,53.334a32,32,0,1,1,32-32A32.039,32.039,0,0,1,362.667,458.667Z" fill="#16b6df"/>
      </g>
    </g>
    <g id="Group_4" data-name="Group 4">
      <g id="Group_3" data-name="Group 3">
        <path id="Path_2" data-name="Path 2" d="M490.667,64H433.856c-9.259-30.741-37.483-53.333-71.189-53.333S300.736,33.259,291.477,64H21.333a21.333,21.333,0,0,0,0,42.666H291.477C300.736,137.408,328.96,160,362.667,160s61.931-22.592,71.189-53.333h56.811a21.333,21.333,0,0,0,0-42.667Zm-128,53.333a32,32,0,1,1,32-32A32.039,32.039,0,0,1,362.667,117.333Z" fill="#16b6df"/>
      </g>
    </g>
    <g id="Group_6" data-name="Group 6">
      <g id="Group_5" data-name="Group 5">
        <path id="Path_3" data-name="Path 3" d="M490.667,234.667H220.523c-9.259-30.741-37.483-53.333-71.189-53.333S87.4,203.926,78.145,234.667H21.333a21.333,21.333,0,1,0,0,42.666H78.144c9.259,30.741,37.483,53.333,71.189,53.333s61.931-22.592,71.189-53.333H490.666a21.333,21.333,0,0,0,0-42.666ZM149.333,288a32,32,0,1,1,32-32A32.039,32.039,0,0,1,149.333,288Z" fill="#16b6df"/>
      </g>
    </g>
  </g>
</svg>
