<svg xmlns="http://www.w3.org/2000/svg" width="416" height="512" viewBox="0 0 416 512">
  <g id="trash" transform="translate(-48)">
    <path id="Path_1" data-name="Path 1" d="M424,64H336V48A48.055,48.055,0,0,0,288,0H224a48.055,48.055,0,0,0-48,48V64H88a40.045,40.045,0,0,0-40,40v56a16,16,0,0,0,16,16h8.744L86.567,466.283A47.942,47.942,0,0,0,134.512,512H377.488a47.941,47.941,0,0,0,47.945-45.717L439.256,176H448a16,16,0,0,0,16-16V104a40.045,40.045,0,0,0-40-40ZM208,48a16.019,16.019,0,0,1,16-16h64a16.019,16.019,0,0,1,16,16V64H208ZM80,104a8.009,8.009,0,0,1,8-8H424a8.009,8.009,0,0,1,8,8v40H80ZM393.469,464.761A15.981,15.981,0,0,1,377.488,480H134.512a15.979,15.979,0,0,1-15.981-15.239L104.78,176H407.22Z" fill="#fe3d56"/>
    <path id="Path_2" data-name="Path 2" d="M256,448a16,16,0,0,0,16-16V224a16,16,0,0,0-32,0V432A16,16,0,0,0,256,448Z" fill="#fe3d56"/>
    <path id="Path_3" data-name="Path 3" d="M336,448a16,16,0,0,0,16-16V224a16,16,0,0,0-32,0V432A16,16,0,0,0,336,448Z" fill="#fe3d56"/>
    <path id="Path_4" data-name="Path 4" d="M176,448a16,16,0,0,0,16-16V224a16,16,0,0,0-32,0V432A16,16,0,0,0,176,448Z" fill="#fe3d56"/>
  </g>
</svg>
